<svg width="1024" height="1024" viewBox="0 0 1024 1024" fill="none" xmlns="http://www.w3.org/2000/svg">
  <defs>
    <!-- Background and glow -->
    <linearGradient id="bg" x1="180" y1="120" x2="820" y2="904" gradientUnits="userSpaceOnUse">
      <stop offset="0" stop-color="#10192E"/>
      <stop offset="1" stop-color="#0A0F1F"/>
    </linearGradient>
    <radialGradient id="bgGlow" cx="50%" cy="50%" r="55%" gradientUnits="userSpaceOnUse">
      <stop offset="0" stop-color="#1B2642" stop-opacity="0.55"/>
      <stop offset="1" stop-color="#0A0F1F" stop-opacity="0"/>
    </radialGradient>

    <!-- Arc gradients -->
    <linearGradient id="arcTeal" x1="260" y1="280" x2="200" y2="460" gradientUnits="userSpaceOnUse">
      <stop offset="0" stop-color="#52E3C2"/>
      <stop offset="1" stop-color="#1EC3A4"/>
    </linearGradient>
    <linearGradient id="arcCoral" x1="820" y1="260" x2="650" y2="440" gradientUnits="userSpaceOnUse">
      <stop offset="0" stop-color="#FF8A5A"/>
      <stop offset="1" stop-color="#FF5B3C"/>
    </linearGradient>
    <linearGradient id="arcCream" x1="720" y1="620" x2="560" y2="520" gradientUnits="userSpaceOnUse">
      <stop offset="0" stop-color="#FFE6B3"/>
      <stop offset="1" stop-color="#FFD27A"/>
    </linearGradient>
    <linearGradient id="arcBlue" x1="240" y1="640" x2="400" y2="740" gradientUnits="userSpaceOnUse">
      <stop offset="0" stop-color="#3E7BFF"/>
      <stop offset="1" stop-color="#2C5DFF"/>
    </linearGradient>

    <!-- Dumbbell metals -->
    <linearGradient id="metalLight" x1="0" y1="0" x2="1" y2="1">
      <stop offset="0" stop-color="#F7FBFF"/>
      <stop offset="1" stop-color="#AFC4DA"/>
    </linearGradient>
    <linearGradient id="metalDark" x1="1" y1="0" x2="0" y2="1">
      <stop offset="0" stop-color="#7B8AA3"/>
      <stop offset="1" stop-color="#4B5870"/>
    </linearGradient>
    <radialGradient id="metalGlow" cx="50%" cy="50%" r="70%">
      <stop offset="0" stop-color="#B7D9FF" stop-opacity="0.85"/>
      <stop offset="1" stop-color="#4A74C7" stop-opacity="0"/>
    </radialGradient>
    <filter id="softShadow" x="-20%" y="-20%" width="140%" height="140%" color-interpolation-filters="sRGB">
      <feDropShadow dx="0" dy="18" stdDeviation="20" flood-color="#05070E" flood-opacity="0.6"/>
    </filter>
  </defs>

  <!-- Rounded square base -->
  <rect x="84" y="84" width="856" height="856" rx="176" fill="url(#bg)"/>
  <rect x="84" y="84" width="856" height="856" rx="176" fill="url(#bgGlow)"/>

  <!-- Outer subtle rim -->
  <rect x="84" y="84" width="856" height="856" rx="176" stroke="#3B4A6A" stroke-opacity="0.25" stroke-width="8" fill="none"/>

  <!-- Segmented ring: 4 colored arcs -->

  <!-- Segmented ring: 4 colored arcs -->
  <!-- Segmented ring: 4 colored arcs, hollow with border glow only -->
  <g>
    <!-- Teal: Top (hollow, glow) -->
    <path d="M512 180 A332 332 0 0 1 844 512" stroke="url(#arcTeal)" stroke-width="36" fill="none" filter="url(#glowTeal)"/>
    <!-- Coral: Right (hollow, glow) -->
    <path d="M844 512 A332 332 0 0 1 512 844" stroke="url(#arcCoral)" stroke-width="36" fill="none" filter="url(#glowCoral)"/>
    <!-- Cream: Bottom (hollow, glow) -->
    <path d="M512 844 A332 332 0 0 1 180 512" stroke="url(#arcCream)" stroke-width="36" fill="none" filter="url(#glowCream)"/>
    <!-- Blue: Left (hollow, glow) -->
    <path d="M180 512 A332 332 0 0 1 512 180" stroke="url(#arcBlue)" stroke-width="36" fill="none" filter="url(#glowBlue)"/>
  </g>

  <!-- Dumbbell center -->
  <g filter="url(#softShadow)">
    <circle cx="512" cy="492" r="108" fill="url(#metalGlow)" opacity="0.6"/>
    <rect x="408" y="472" width="208" height="32" rx="12" fill="url(#metalDark)"/>
    <rect x="438" y="418" width="24" height="140" rx="10" fill="url(#metalLight)"/>
    <rect x="562" y="418" width="24" height="140" rx="10" fill="url(#metalLight)"/>
    <rect x="384" y="434" width="34" height="108" rx="14" fill="url(#metalDark)"/>
    <rect x="606" y="434" width="34" height="108" rx="14" fill="url(#metalDark)"/>
    <circle cx="401" cy="492" r="8" fill="#F7FBFF"/>
    <circle cx="623" cy="492" r="8" fill="#F7FBFF"/>
  </g>
</svg>
